<svg width="128" height="128" viewBox="0 0 128 128" fill="none" xmlns="http://www.w3.org/2000/svg">
<g clip-path="url(#clip0_291_1508)">
<path d="M121.18 41.917L121.183 41.9252C124.276 49.8791 125.667 58.3929 125.268 66.9175L125.268 66.9236C125.028 72.3087 124.061 77.6367 122.394 82.7628L122.391 82.771C121.074 86.8638 119.331 90.8067 117.189 94.5347L117.189 94.5349C100.317 123.911 62.8272 134.048 33.4474 117.175L33.4437 117.173C28.763 114.495 24.4652 111.197 20.6666 107.369L20.6603 107.363C16.9591 103.658 13.7477 99.4942 11.1043 94.9733C-5.99397 65.7268 3.85393 28.1579 33.1036 11.0591L33.106 11.0577C35.9179 9.40985 38.8592 7.99345 41.9007 6.82248L41.9169 6.81625L41.933 6.80982L42.0447 6.76513C73.6035 -5.37472 109.031 10.3608 121.18 41.917Z" fill="#B13932" stroke="black" stroke-width="5.33"/>
<path d="M118.088 43.1136C121.007 50.6418 122.318 58.6978 121.935 66.7631C120.113 69.1881 118.179 71.5263 116.133 73.7777C109.797 59.1508 100.064 46.2456 87.7424 36.1329C75.4204 26.0201 60.8646 18.9914 45.2825 15.6299C47.3485 12.7267 49.5681 9.93582 51.9317 7.26928C79.793 1.36156 107.823 16.5489 118.088 43.1136Z" fill="#CC4641"/>
<path d="M121.935 66.7404C121.704 71.8373 120.789 76.88 119.213 81.7327C118.743 80.323 118.227 78.919 117.676 77.5318C117.165 76.2671 116.655 74.9733 116.144 73.755C118.179 71.504 120.113 69.1658 121.946 66.7404" fill="#CC4641"/>
<path d="M117.699 77.5319C118.239 78.9306 118.755 80.3346 119.237 81.7328C109.423 112.237 76.739 129.01 46.2339 119.197C42.3628 117.951 38.6333 116.302 35.1069 114.277C34.5267 112.925 33.9466 111.556 33.3664 110.151C32.8559 108.875 32.4091 107.593 31.974 106.316C47.5718 107.825 63.3064 105.667 77.9217 100.013C92.5369 94.3595 105.628 85.3676 116.15 73.7551C116.684 74.9966 117.189 76.2903 117.688 77.5319H117.699Z" fill="#B13932"/>
<path d="M116.144 73.7551C105.627 85.376 92.5371 94.3763 77.9211 100.037C63.3052 105.698 47.5679 107.862 31.9665 106.357C26.8105 91.2706 25.3279 75.172 27.6418 59.3978C29.9557 43.6236 35.9993 28.629 45.2708 15.6589C60.8521 19.0113 75.4094 26.0304 87.7352 36.1341C100.061 46.2377 109.8 59.1347 116.144 73.7551Z" fill="#BE4137"/>
<path d="M51.9375 7.26929C49.5737 9.93725 47.3523 12.728 45.2824 15.6299C41.8059 14.87 38.2905 14.3006 34.7518 13.9242C37.4193 12.3631 40.2097 11.0222 43.0952 9.9148C45.9695 8.80482 48.9259 7.92031 51.9375 7.26929Z" fill="#A5322D"/>
<path d="M34.746 13.9242C38.2865 14.3012 41.8038 14.8706 45.2824 15.6299C36.0053 28.6028 29.9584 43.6025 27.6444 59.3824C25.3305 75.1623 26.8162 91.2666 31.9781 106.357C28.9554 106.061 25.9443 105.632 22.9733 105.057C0.324242 82.4162 0.318442 45.701 22.96 23.0529C26.4817 19.5296 30.443 16.475 34.746 13.9648" fill="#A5322D"/>
<path d="M33.3705 110.151C33.8868 111.556 34.4728 112.925 35.111 114.277C30.6783 111.739 26.6073 108.617 23.0076 104.994C25.9837 105.578 28.9874 106.011 32.0071 106.293C32.4306 107.569 32.8947 108.851 33.3995 110.127L33.3705 110.151Z" fill="#B13932"/>
<path d="M25.1025 31.0342H44.5456C47.1631 31.0182 49.7755 31.2653 52.3436 31.7715C54.7074 32.209 56.9709 33.0761 59.0219 34.33C60.9618 35.5393 62.5596 37.2252 63.6632 39.2271C64.8236 41.277 65.4037 43.886 65.4037 47.054C65.4037 51.1151 64.284 54.515 62.0446 57.2537C59.8051 59.9924 56.6101 61.6608 52.4596 62.2587L67.2962 87.0047H55.3146L42.341 63.2937H35.0651V87.036H25.1025V31.0342ZM42.8109 54.7532C44.2381 54.7532 45.6711 54.6894 47.0867 54.556C48.4311 54.4429 49.7501 54.1239 50.9976 53.6103C52.1628 53.1237 53.1679 52.3197 53.8985 51.2897C54.6359 50.2628 55.0008 48.8299 55.0008 46.9792C55.0687 45.5871 54.7124 44.2072 53.9791 43.0219C53.3041 42.0433 52.3702 41.2716 51.2819 40.793C50.1133 40.2806 48.8726 39.9518 47.6037 39.8183C46.312 39.6588 45.0117 39.5793 43.7102 39.5804H35.0657V54.7532H42.8109ZM67.9112 46.6311H76.9217V52.323H77.0784C78.3478 50.0948 80.2879 48.3241 82.6224 47.2629C84.9789 46.1896 87.5411 45.6431 90.1304 45.6616C92.8188 45.6064 95.4884 46.1225 97.9626 47.1758C100.213 48.1533 102.231 49.5944 103.887 51.4052C105.545 53.2287 106.811 55.3734 107.606 57.7062C108.462 60.2279 108.89 62.8753 108.871 65.5383C108.896 68.2116 108.444 70.8679 107.536 73.3826C106.703 75.7294 105.428 77.8954 103.782 79.7643C102.161 81.5599 100.186 82.9999 97.9806 83.9937C95.6397 85.0319 93.1029 85.5545 90.5423 85.5258C88.9436 85.5392 87.35 85.3442 85.8017 84.9457C84.5359 84.6215 83.3143 84.144 82.1641 83.5237C81.2014 83.0081 80.3001 82.3853 79.4774 81.6672C78.8108 81.0837 78.2027 80.4367 77.6614 79.7353H77.3656V102.58H67.9112V46.6311ZM99.4107 65.5865C99.4169 64.1293 99.1614 62.6829 98.6565 61.316C98.1686 59.9689 97.4149 58.7337 96.4402 57.6836C94.8105 56.0057 92.7095 54.8624 90.4155 54.4051C88.1216 53.9478 85.7428 54.1981 83.5942 55.1228C82.2639 55.7338 81.0685 56.6035 80.0778 57.6813C79.1053 58.733 78.3519 59.9678 77.8616 61.3136C76.8579 64.072 76.8579 67.0958 77.8616 69.8541C78.3509 71.2022 79.1044 72.4391 80.0778 73.4923C81.7114 75.1646 83.8144 76.3013 86.1083 76.752C88.4023 77.2026 90.779 76.9459 92.9239 76.0159C94.2504 75.4139 95.4453 74.5563 96.4402 73.4923C97.4139 72.4392 98.1674 71.2023 98.6565 69.8541C99.1581 68.4871 99.4134 67.042 99.4107 65.5859V65.5865Z" fill="white"/>
</g>
<defs>
<clipPath id="clip0_291_1508">
<rect width="128" height="128" fill="white"/>
</clipPath>
</defs>
</svg>
