<svg id="Layer_1" data-name="Layer 1" xmlns="http://www.w3.org/2000/svg" viewBox="0 0 19 19"><defs><style>.cls-1{fill:none;stroke:#fff;stroke-miterlimit:10;}.cls-2{fill:#fff;}</style></defs><rect class="cls-1" x="0.5" y="0.5" width="18" height="18" rx="2"/><path class="cls-2" d="M2.85,13.29l.1-.64L6.18,9.2v.25H3.47l.12-.75H7.24l-.11.63L3.86,12.8v-.26H6.73l-.12.75Z" transform="translate(-0.5 -0.5)"/><path class="cls-2" d="M7.67,13.29l1-6.58h1l-.64,4H9l2.24-2h1.19L9.75,11.16v-.44L12,13.29H10.86L9,11.18H9l-.34,2.11Z" transform="translate(-0.5 -0.5)"/><path class="cls-2" d="M12.77,13.29l1.05-6.58h1l-.91,5.72h3.25l-.14.86Z" transform="translate(-0.5 -0.5)"/></svg>